<svg width="53" height="23" viewBox="0 0 53 23" fill="none" xmlns="http://www.w3.org/2000/svg">
<path d="M0.958807 20V11.2727H4.0696C4.74574 11.2727 5.30682 11.3892 5.75284 11.6222C6.2017 11.8551 6.53693 12.1776 6.75852 12.5895C6.98011 12.9986 7.09091 13.4716 7.09091 14.0085C7.09091 14.5426 6.97869 15.0128 6.75426 15.419C6.53267 15.8224 6.19744 16.1364 5.74858 16.3608C5.30256 16.5852 4.74148 16.6974 4.06534 16.6974H1.70881V15.5639H3.94602C4.37216 15.5639 4.71875 15.5028 4.9858 15.3807C5.25568 15.2585 5.45312 15.081 5.57812 14.848C5.70312 14.6151 5.76562 14.3352 5.76562 14.0085C5.76562 13.679 5.7017 13.3935 5.57386 13.152C5.44886 12.9105 5.25142 12.7259 4.98153 12.598C4.71449 12.4673 4.36364 12.402 3.92898 12.402H2.27557V20H0.958807ZM5.26705 16.0625L7.4233 20H5.9233L3.80966 16.0625H5.26705ZM8.69318 20V11.2727H10.0099V15.0653H14.3608V11.2727H15.6818V20H14.3608V16.1946H10.0099V20H8.69318ZM16.9261 11.2727H18.4219L20.7017 15.2401H20.7955L23.0753 11.2727H24.571L21.4048 16.5739V20H20.0923V16.5739L16.9261 11.2727ZM25.9347 12.4062V11.2727H32.6889V12.4062H29.9659V20H28.6534V12.4062H25.9347ZM34.1815 20V11.2727H35.4982V15.0653H39.8491V11.2727H41.1701V20H39.8491V16.1946H35.4982V20H34.1815ZM43.0877 11.2727H44.6857L47.4641 18.0568H47.5664L50.3448 11.2727H51.9428V20H50.69V13.6847H50.609L48.0352 19.9872H46.9954L44.4215 13.6804H44.3406V20H43.0877V11.2727Z" fill="url(#paint0_linear_302_106)"/>
<path d="M0 3H9V4.5H0V3ZM0 6H6V7.5H0V6ZM0 0H9V1.5H0V0ZM10.5 6.135C10.2675 6.0525 10.0125 6 9.75 6C8.505 6 7.5 7.005 7.5 8.25C7.5 9.495 8.505 10.5 9.75 10.5C10.995 10.5 12 9.495 12 8.25V1.5H14.25V0H10.5V6.135Z" fill="#FDBD41"/>
<defs>
<linearGradient id="paint0_linear_302_106" x1="55" y1="16" x2="-26" y2="18" gradientUnits="userSpaceOnUse">
<stop stop-color="#FDBD41"/>
<stop offset="1" stop-color="#E2C791" stop-opacity="0.9"/>
</linearGradient>
</defs>
</svg>
